<?xml version="1.0" encoding="UTF-8" standalone="no"?>
<svg xmlns:dc="http://purl.org/dc/elements/1.1/" xmlns:cc="http://creativecommons.org/ns#" xmlns:rdf="http://www.w3.org/1999/02/22-rdf-syntax-ns#" xmlns:svg="http://www.w3.org/2000/svg" xmlns="http://www.w3.org/2000/svg" xmlns:xlink="http://www.w3.org/1999/xlink" xmlns:sodipodi="http://sodipodi.sourceforge.net/DTD/sodipodi-0.dtd" xmlns:inkscape="http://www.inkscape.org/namespaces/inkscape" version="1.1" id="logo" x="0px" y="0px" viewBox="0 0 354.147 105.421" xml:space="preserve" sodipodi:docname="logo-panska_screen.svg" width="354.147" height="105.421" inkscape:version="1.0 (4035a4fb49, 2020-05-01)"><metadata id="metadata22"><rdf:RDF><cc:Work rdf:about=""><dc:format>image/svg+xml</dc:format><dc:type rdf:resource="http://purl.org/dc/dcmitype/StillImage"/><dc:title/></cc:Work></rdf:RDF></metadata><defs id="defs20"><linearGradient id="linearGradient872" inkscape:collect="always"><stop id="stop868" offset="0" style="stop-color:#1a1a1a;stop-opacity:1;"/><stop id="stop870" offset="1" style="stop-color:#1a1a1a;stop-opacity:0;"/></linearGradient><linearGradient gradientUnits="userSpaceOnUse" y2="64" x2="338.8736" y1="64" x1="15.172497" id="linearGradient874" xlink:href="#linearGradient872" inkscape:collect="always"/></defs><sodipodi:namedview inkscape:document-rotation="0" pagecolor="#ffffff" bordercolor="#666666" borderopacity="1" objecttolerance="10" gridtolerance="10" guidetolerance="10" inkscape:pageopacity="0" inkscape:pageshadow="2" inkscape:window-width="1680" inkscape:window-height="987" id="namedview18" showgrid="false" inkscape:showpageshadow="false" inkscape:zoom="3.8839471" inkscape:cx="114.87847" inkscape:cy="64" inkscape:window-x="-8" inkscape:window-y="-8" inkscape:window-maximized="1" inkscape:current-layer="logo"/>
<g style="fill:#ffffff;stroke:#333333;opacity:1;stroke-opacity:1;stroke-width:0.18212768;stroke-miterlimit:4;stroke-dasharray:none;fill-opacity:1" id="logo_1_" transform="matrix(1.0981307,0,0,1.0981307,-17.504259,-17.131799)">
	<g style="fill:#ffffff;stroke:#333333;stroke-opacity:1;stroke-width:0.18212768;stroke-miterlimit:4;stroke-dasharray:none;fill-opacity:1" id="symbol">
		<path style="fill:#ffffff;stroke:#333333;stroke-opacity:1;stroke-width:0.18212768;stroke-miterlimit:4;stroke-dasharray:none;fill-opacity:1" id="symbol_x5F_part_x5F_1" d="M 63.7,16 C 45.6,16 29.8,26 21.6,40.9 h 84.2 C 97.7,26 81.9,16 63.7,16 Z"/>
		<path style="fill:#ffffff;stroke:#333333;stroke-opacity:1;stroke-width:0.18212768;stroke-miterlimit:4;stroke-dasharray:none;fill-opacity:1" id="symbol_x5F_part_x5F_2" d="m 19.3,45.6 c -2.1,5 -3.3,10.3 -3.6,16 h 96 c -0.3,-5.6 -1.5,-11 -3.6,-16 z"/>
		<path style="fill:#ffffff;stroke:#333333;stroke-opacity:1;stroke-width:0.18212768;stroke-miterlimit:4;stroke-dasharray:none;fill-opacity:1" id="symbol_x5F_part_x5F_3" d="m 19.3,82.4 h 88.8 c 2.1,-5 3.3,-10.3 3.6,-16 h -96 c 0.3,5.6 1.6,11 3.6,16 z"/>
		<path style="fill:#ffffff;stroke:#333333;stroke-opacity:1;stroke-width:0.18212768;stroke-miterlimit:4;stroke-dasharray:none;fill-opacity:1" id="symbol_x5F_part_x5F_4" d="m 63.7,112 c 18.1,0 33.9,-10 42.1,-24.9 H 21.7 c 8.1,14.9 23.9,24.9 42,24.9 z"/>
	</g>
	<g style="fill:#ffffff;stroke:#333333;stroke-opacity:1;stroke-width:0.18212768;stroke-miterlimit:4;stroke-dasharray:none;fill-opacity:1" id="type">
		<path style="fill:#ffffff;stroke:#333333;stroke-opacity:1;stroke-width:0.18212768;stroke-miterlimit:4;stroke-dasharray:none;fill-opacity:1" id="letter_x5F_1" d="m 146.4,45.6 h -14.2 v 36.7 h 9.7 V 70.7 h 4.5 c 7.7,0 14.7,-3.9 14.7,-12.9 0,-9.2 -6.8,-12.2 -14.7,-12.2 z M 145.9,63 h -4.1 v -9.7 h 4.1 c 3.6,0 5.6,1.2 5.6,4.5 0.1,3.3 -1.7,5.2 -5.6,5.2 z"/>
		<path style="fill:#ffffff;stroke:#333333;stroke-opacity:1;stroke-width:0.18212768;stroke-miterlimit:4;stroke-dasharray:none;fill-opacity:1" id="letter_x5F_2" d="m 172.1,45.6 -11.2,36.7 h 9.9 l 1.8,-7.8 H 183 l 1.8,7.8 h 10.3 L 183.9,45.6 c 0,0 -11.8,0 -11.8,0 z m 2.3,21.5 0.6,-2.5 c 0.9,-3.5 1.8,-7.9 2.6,-11.6 h 0.2 c 0.9,3.7 1.8,8.1 2.7,11.6 l 0.6,2.5 z"/>
		<path style="fill:#ffffff;stroke:#333333;stroke-opacity:1;stroke-width:0.18212768;stroke-miterlimit:4;stroke-dasharray:none;fill-opacity:1" id="letter_x5F_3" d="m 220.5,56.3 c 0,4.5 0.8,10.1 1.2,14 h -0.2 L 218,62 209.9,45.6 H 200 v 36.7 h 9.3 V 71.7 c 0,-4.5 -0.8,-9.8 -1.2,-14 h 0.2 l 3.5,8.2 8.1,16.4 h 9.9 V 45.6 h -9.3 z"/>
		<path style="fill:#ffffff;stroke:#333333;stroke-opacity:1;stroke-width:0.18212768;stroke-miterlimit:4;stroke-dasharray:none;fill-opacity:1" id="letter_x5F_4" d="m 258.1,61.2 -4.5,-1.8 c -3.3,-1.3 -5.4,-1.9 -5.4,-3.7 0,-1.6 1.5,-2.5 3.8,-2.5 2.7,0 4.9,0.9 7.3,2.7 l 4.9,-6.1 c -3.4,-3.3 -8,-4.9 -12.2,-4.9 -8,0 -13.7,5.1 -13.7,11.4 0,5.3 3.4,8.6 7.4,10.2 l 4.6,1.9 c 3.1,1.2 5,1.8 5,3.6 0,1.6 -1.2,2.6 -4.2,2.6 -2.7,0 -6,-1.5 -8.6,-3.6 l -5.5,6.7 c 4,3.6 9.3,5.3 13.9,5.3 9.2,0 14.4,-5.5 14.4,-11.8 -0.1,-5 -2.7,-8.2 -7.2,-10 z"/>
		<polygon style="fill:#ffffff;stroke:#333333;stroke-opacity:1;stroke-width:0.18212768;stroke-miterlimit:4;stroke-dasharray:none;fill-opacity:1" id="letter_x5F_5" points="282.2,45.6 272.5,45.6 272.5,82.4 282.2,82.4 282.2,73.2 285.7,68.2 293.8,82.4 304.5,82.4 291.3,60.6 302.3,45.6 291.7,45.6 282.4,59.3 282.2,59.3 "/>
		<g style="fill:#ffffff;stroke:#333333;stroke-opacity:1;stroke-width:0.18212768;stroke-miterlimit:4;stroke-dasharray:none;fill-opacity:1" id="letter_x5F_6">
			<path style="fill:#ffffff;stroke:#333333;stroke-opacity:1;stroke-width:0.18212768;stroke-miterlimit:4;stroke-dasharray:none;fill-opacity:1" id="letter_x5F_6_x5F_1_1_" d="m 327.1,45.6 h -11.8 l -11.2,36.7 h 9.9 l 1.8,-7.8 h 10.3 l 1.8,7.8 h 10.3 z m -9.5,21.5 0.6,-2.5 c 0.9,-3.5 1.8,-7.9 2.6,-11.6 h 0.2 c 0.9,3.7 1.8,8.1 2.7,11.6 l 0.6,2.5 z"/>
			<polygon style="fill:#ffffff;stroke:#333333;stroke-opacity:1;stroke-width:0.18212768;stroke-miterlimit:4;stroke-dasharray:none;fill-opacity:1" id="letter_x5F_6_x5F_2" points="316.2,42.8 323.9,42.8 330.8,35.8 320.6,35.8 "/>
		</g>
	</g>
</g>
</svg>